From draft-dodging to the Dayton Accords, from Monica Lewinsky to a balanced budget, the presidency of William Jefferson Clinton veered between sordid scandal and grand achievement. In Clinton, the latest installment in the critically acclaimed series of presidential biographies, AMERICAN EXPERIENCE explores the fascinating story of an American president who rose from a broken childhood in Arkansas to become one of the most successful politicians in modern American history--and one of the most complex and conflicted characters to ever stride across the public stage.
-
--------------
-
PBS.American Experience.Clinton.480p.HDTV.x264-KarMa  
All 4 Parts

Soft Subtitles
English

Snapshots 
http://nimga.com/f/iHvpU.png 
http://nimga.com/f/EE8Au.png 
http://nimga.com/f/LDPL6.png 
http://nimga.com/f/b32LF.png 
http://nimga.com/f/1bAA6.jpg


General
Complete name                    : PBS.American Experience.Clinton.1of4.480p.HDTV.x264-KarMa.mp4
Format                           : MPEG-4
File size                        : 557 MiB
Duration                         : 1h 0mn
Overall bit rate mode            : Variable
Overall bit rate                 : 1 291 Kbps
-
Video
Format/Info                      : Advanced Video Codec
Format profile                   : High@L3.1
Format settings, CABAC           : Yes
Format settings, ReFrames        : 5 frames
Bit rate                         : 1 160 Kbps
Maximum bit rate                 : 9 472 Kbps
Width                            : 848 pixels
Height                           : 480 pixels
Frame rate mode                  : Constant
Frame rate                       : 29.970 fps
Scan type                        : Progressive
Bits/(Pixel*Frame)               : 0.095
Stream size                      : 500 MiB (90%)
Writing library                  : x264 core 120
Encoding settings                : cabac=1 / ref=5 / analyse=0x3:0x113 / me=umh / subme=9 / psy=1 / psy_rd=2.00:1.00 / mixed_ref=1 / me_range=16 / chroma_me=1 / trellis=2 / 8x8dct=1 
-
Audio
Format                           : AAC
Format profile                   : LC
Bit rate mode                    : Variable
Bit rate                         : 127 Kbps
Maximum bit rate                 : 203 Kbps
Channel(s)                       : 2 channels
Sampling rate                    : 48.0 KHz
Stream size                      : 54.7 MiB (10%)

